<svg  viewBox="17 15 45 50" fill="none" xmlns="http://www.w3.org/2000/svg">
  <g filter="url(#a)">
    <path d="M57.951 44.006 47.408 19.855l-2.3-1.594-2.695-.858-3.646-.981-4.281 1.839-2.854 1.594 10.781 24.15h15.538Z" fill="url(#b)"/>
  </g>
  <g filter="url(#c)">
    <path d="m20.113 35.93 10.544 24.207 2.299 1.598 2.695.86 3.647.983 4.28-1.843 2.854-1.598-10.78-24.208H20.112Z" fill="url(#d)"/>
  </g>
  <path d="M31.068 20.17 14.7 43.83l16.368.175L42.9 20.17c.831-2.438 3.43-1.016 4.626 0-5.11-9.363-13.101-3.901-16.458 0ZM46.932 59.83 63.3 36.17l-16.368-.175L35.099 59.83c-.83 2.438-3.43 1.016-4.625 0 5.11 9.363 13.101 3.901 16.458 0Z" fill="#fff"/>
  <defs>
    <linearGradient id="b" x1="55.224" y1="44.006" x2="42.72" y2="20.613" gradientUnits="userSpaceOnUse">
      <stop/>
      <stop offset=".495" stop-color="#fff"/>
      <stop offset="1" stop-color="#fff"/>
    </linearGradient>
    <linearGradient id="d" x1="22.84" y1="35.929" x2="35.39" y2="59.353" gradientUnits="userSpaceOnUse">
      <stop stop-color="#0C0C0C"/>
      <stop offset=".495" stop-color="#fff"/>
      <stop offset="1" stop-color="#fff"/>
    </linearGradient>
    <filter id="a" x="11.632" y=".422" width="66.319" height="67.584" filterUnits="userSpaceOnUse" color-interpolation-filters="sRGB">
      <feFlood flood-opacity="0" result="BackgroundImageFix"/>
      <feColorMatrix in="SourceAlpha" values="0 0 0 0 0 0 0 0 0 0 0 0 0 0 0 0 0 0 127 0" result="hardAlpha"/>
      <feOffset dy="4"/>
      <feGaussianBlur stdDeviation="10"/>
      <feComposite in2="hardAlpha" operator="out"/>
      <feColorMatrix values="0 0 0 0 0 0 0 0 0 0 0 0 0 0 0 0 0 0 0.25 0"/>
      <feBlend in2="BackgroundImageFix" result="effect1_dropShadow_102_110"/>
      <feBlend in="SourceGraphic" in2="effect1_dropShadow_102_110" result="shape"/>
    </filter>
    <filter id="c" x=".113" y="19.93" width="66.319" height="67.648" filterUnits="userSpaceOnUse" color-interpolation-filters="sRGB">
      <feFlood flood-opacity="0" result="BackgroundImageFix"/>
      <feColorMatrix in="SourceAlpha" values="0 0 0 0 0 0 0 0 0 0 0 0 0 0 0 0 0 0 127 0" result="hardAlpha"/>
      <feOffset dy="4"/>
      <feGaussianBlur stdDeviation="10"/>
      <feComposite in2="hardAlpha" operator="out"/>
      <feColorMatrix values="0 0 0 0 0 0 0 0 0 0 0 0 0 0 0 0 0 0 0.25 0"/>
      <feBlend in2="BackgroundImageFix" result="effect1_dropShadow_102_110"/>
      <feBlend in="SourceGraphic" in2="effect1_dropShadow_102_110" result="shape"/>
    </filter>
  </defs>
</svg>
