<svg aria-hidden="true" style="position:absolute;width:0;height:0;overflow:hidden" xmlns="http://www.w3.org/2000/svg">
  <defs>
    <symbol id="icon-prev" viewBox="0 0 32 32">
    <path fill="none" stroke="#fff" style="stroke: var(--color1, #fff)" stroke-linejoin="round" stroke-linecap="round" stroke-miterlimit="4" stroke-width="1.3333" d="M20 24l-8-8 8-8"></path>
    </symbol>
    <symbol id="icon-heart" viewBox="0 0 32 32">
      <path stroke-linejoin="round" stroke-linecap="round" stroke-width="2.667" d="M27.787 6.147a7.326 7.326 0 0 0-10.373 0L16.001 7.56l-1.413-1.413a7.333 7.333 0 0 0-10.374 0 7.333 7.333 0 0 0 0 10.374l11.787 11.787 11.787-11.787a7.345 7.345 0 0 0 2.15-5.187 7.33 7.33 0 0 0-2.15-5.187v0z"/>
    </symbol>
    <symbol id="icon-close" viewBox="0 0 32 32">
      <path fill="none" stroke-linejoin="round" stroke-linecap="round" stroke-width="1.733" d="M24 8 8 24M8 8l16 16"/>
    </symbol>
    <symbol id="icon-burger" viewBox="0 0 32 32">
      <path fill="#fff" style="fill:var(--color1, #fff)" d="M2.667 7.993c0-.733.595-1.327 1.327-1.327h10.68a1.326 1.326 0 0 1 0 2.654H3.994a1.326 1.326 0 0 1-1.327-1.327zm0 8.007c0-.733.595-1.327 1.327-1.327h24.013a1.326 1.326 0 0 1 0 2.654H3.994A1.326 1.326 0 0 1 2.667 16zm1.326 6.68a1.326 1.326 0 0 0 0 2.654h16.013a1.326 1.326 0 0 0 0-2.654H3.993z"/>
    </symbol>
    <symbol id="icon-facebook" viewBox="0 0 32 32">
      <path opacity=".8" d="M19.52 4.64h.96v3.6h-1.2c-.48 0-.96 0-1.2.24s-.24.48-.24 1.04v1.28h2.64v3.04h-2.64v13.2h-4.08V13.76H11.6v-3.04h2.16V9.68c0-1.76.24-3.04.72-3.6.72-1.04 2.16-1.52 4.32-1.52.24.08.48.08.72.08z"/>
    </symbol>
    <symbol id="icon-youtube" viewBox="0 0 32 32">
      <path opacity=".8" d="M24.24 6c-1.36-.08-4.16-.16-8.4-.16h-.56c-4.08 0-6.8.08-8.16.24-1.84.16-3.12.64-3.84 1.28-.64.56-1.12 1.6-1.28 2.96-.08.88-.16 2.72-.16 5.52v.4c0 2.64.08 4.48.24 5.36.24 1.28.64 2.24 1.44 2.8.8.64 2.16 1.04 4.08 1.2 1.36.08 4.16.16 8.4.16h.56c4.08 0 6.8-.08 8.16-.24 1.84-.16 3.12-.64 3.84-1.28.64-.56 1.12-1.6 1.28-2.96.08-.88.16-2.72.16-5.52v-.4c0-2.64-.08-4.48-.24-5.36-.24-1.28-.64-2.24-1.44-2.8-.8-.64-2.16-1.04-4.08-1.2zm-3.12 9.84-8.8 5.28V10.56l8.8 5.28z"/>
    </symbol>
    <symbol id="icon-instagram" viewBox="0 0 32 32">
      <path opacity=".8" d="M28.718 10.756a9.264 9.264 0 0 0-.596-3.145 6.547 6.547 0 0 0-3.743-3.737 9.42 9.42 0 0 0-3.108-.596c-1.368-.061-1.801-.078-5.273-.078s-3.916 0-5.274.078a9.413 9.413 0 0 0-3.106.596 6.541 6.541 0 0 0-3.743 3.737 9.288 9.288 0 0 0-.596 3.101c-.061 1.367-.08 1.8-.08 5.265s0 3.909.08 5.265a9.335 9.335 0 0 0 .596 3.104 6.548 6.548 0 0 0 3.744 3.735 9.37 9.37 0 0 0 3.106.639c1.369.061 1.803.079 5.274.079s3.916 0 5.274-.079a9.362 9.362 0 0 0 3.108-.595 6.555 6.555 0 0 0 3.743-3.737 9.35 9.35 0 0 0 .596-3.104c.061-1.365.08-1.798.08-5.265-.003-3.466-.003-3.906-.082-5.264zM15.99 22.531c-3.631 0-6.572-2.936-6.572-6.561s2.941-6.561 6.572-6.561c3.628 0 6.572 2.936 6.572 6.561s-2.944 6.561-6.572 6.561zm6.834-11.835a1.53 1.53 0 1 1 0-3.06 1.53 1.53 0 1 1 0 3.06z"/>
      <path opacity=".8" d="M15.992 19.976a4.004 4.004 0 1 0 0-8.009 4.004 4.004 0 0 0 0 8.009z"/>
    </symbol>
    <symbol id="icon-moon" viewBox="0 0 24 24">
      <path d="M3 17C10.952 18.6176 16.6829 8.75775 11 3C16.0007 3.13144 20 7.11149 20 12C20 16.9715 16.1188 21 11 21C7.77111 21 4.65938 19.4319 3 17Z" stroke-width="1.5" stroke-linejoin="round"/>
    </symbol>
    <symbol id="icon-sun" viewBox="0 0 24 24">
    <path d="M12 17.75C10.8628 17.75 9.75106 17.4128 8.80547 16.781C7.85989 16.1491 7.1229 15.2511 6.6877 14.2004C6.25249 13.1498 6.13862 11.9936 6.36049 10.8782C6.58235 9.76284 7.12999 8.73829 7.93414 7.93414C8.73829 7.12999 9.76284 6.58235 10.8782 6.36049C11.9936 6.13862 13.1498 6.25249 14.2004 6.6877C15.2511 7.1229 16.1491 7.85989 16.781 8.80547C17.4128 9.75106 17.75 10.8628 17.75 12C17.7474 13.5242 17.1407 14.9852 16.0629 16.0629C14.9852 17.1407 13.5242 17.7474 12 17.75ZM12 7.75C11.1594 7.75 10.3377 7.99926 9.63883 8.46626C8.93992 8.93325 8.39519 9.59701 8.07351 10.3736C7.75184 11.1502 7.66768 12.0047 7.83167 12.8291C7.99565 13.6536 8.40043 14.4108 8.9948 15.0052C9.58917 15.5996 10.3464 16.0044 11.1709 16.1683C11.9953 16.3323 12.8498 16.2482 13.6264 15.9265C14.403 15.6048 15.0668 15.0601 15.5337 14.3612C16.0007 13.6623 16.25 12.8406 16.25 12C16.2474 10.8736 15.7987 9.79417 15.0023 8.99772C14.2058 8.20126 13.1264 7.75264 12 7.75Z"/>
    <path d="M12 5C11.8019 4.99741 11.6126 4.91756 11.4725 4.77747C11.3324 4.63737 11.2526 4.44811 11.25 4.25V2.75C11.25 2.55109 11.329 2.36032 11.4697 2.21967C11.6103 2.07902 11.8011 2 12 2C12.1989 2 12.3897 2.07902 12.5303 2.21967C12.671 2.36032 12.75 2.55109 12.75 2.75V4.25C12.7474 4.44811 12.6676 4.63737 12.5275 4.77747C12.3874 4.91756 12.1981 4.99741 12 5Z" />
    <path d="M12 22C11.8019 21.9974 11.6126 21.9176 11.4725 21.7775C11.3324 21.6374 11.2526 21.4481 11.25 21.25V19.75C11.25 19.5511 11.329 19.3603 11.4697 19.2197C11.6103 19.079 11.8011 19 12 19C12.1989 19 12.3897 19.079 12.5303 19.2197C12.671 19.3603 12.75 19.5511 12.75 19.75V21.25C12.7474 21.4481 12.6676 21.6374 12.5275 21.7775C12.3874 21.9176 12.1981 21.9974 12 22Z" />
    <path d="M21.25 12.75H19.75C19.5511 12.75 19.3603 12.671 19.2197 12.5303C19.079 12.3897 19 12.1989 19 12C19 11.8011 19.079 11.6103 19.2197 11.4697C19.3603 11.329 19.5511 11.25 19.75 11.25H21.25C21.4489 11.25 21.6397 11.329 21.7803 11.4697C21.921 11.6103 22 11.8011 22 12C22 12.1989 21.921 12.3897 21.7803 12.5303C21.6397 12.671 21.4489 12.75 21.25 12.75Z"/>
    <path d="M4.25 12.75H2.75C2.55109 12.75 2.36032 12.671 2.21967 12.5303C2.07902 12.3897 2 12.1989 2 12C2 11.8011 2.07902 11.6103 2.21967 11.4697C2.36032 11.329 2.55109 11.25 2.75 11.25H4.25C4.44891 11.25 4.63968 11.329 4.78033 11.4697C4.92098 11.6103 5 11.8011 5 12C5 12.1989 4.92098 12.3897 4.78033 12.5303C4.63968 12.671 4.44891 12.75 4.25 12.75Z" />
    <path d="M6.50001 7.24995C6.30707 7.2352 6.12758 7.14545 6.00001 6.99995L4.91001 5.99995C4.83844 5.92838 4.78167 5.84341 4.74293 5.7499C4.7042 5.65639 4.68427 5.55617 4.68427 5.45495C4.68427 5.35373 4.7042 5.25351 4.74293 5.16C4.78167 5.06649 4.83844 4.98152 4.91001 4.90995C4.98158 4.83838 5.06655 4.78161 5.16006 4.74287C5.25357 4.70414 5.3538 4.6842 5.45501 4.6842C5.55623 4.6842 5.65645 4.70414 5.74996 4.74287C5.84347 4.78161 5.92844 4.83838 6.00001 4.90995L7.00001 5.99995C7.123 6.13746 7.19099 6.31547 7.19099 6.49995C7.19099 6.68443 7.123 6.86244 7.00001 6.99995C6.87244 7.14545 6.69295 7.2352 6.50001 7.24995Z" />
    <path d="M18.56 19.31C18.4615 19.3104 18.3638 19.2912 18.2728 19.2534C18.1818 19.2157 18.0993 19.1601 18.03 19.09L17 18C16.9332 17.86 16.9114 17.7028 16.9376 17.5499C16.9638 17.3971 17.0368 17.2561 17.1465 17.1464C17.2561 17.0368 17.3971 16.9638 17.55 16.9376C17.7028 16.9113 17.8601 16.9331 18 17L19.09 18C19.2305 18.1406 19.3094 18.3312 19.3094 18.53C19.3094 18.7287 19.2305 18.9194 19.09 19.06C19.0233 19.1355 18.9419 19.1967 18.8508 19.2397C18.7597 19.2827 18.6607 19.3066 18.56 19.31Z" />
    <path d="M17.5 7.24995C17.3071 7.2352 17.1276 7.14545 17 6.99995C16.877 6.86244 16.809 6.68443 16.809 6.49995C16.809 6.31547 16.877 6.13746 17 5.99995L18 4.90995C18.1445 4.76541 18.3406 4.6842 18.545 4.6842C18.7494 4.6842 18.9455 4.76541 19.09 4.90995C19.2345 5.05449 19.3158 5.25054 19.3158 5.45495C19.3158 5.65936 19.2345 5.85541 19.09 5.99995L18 6.99995C17.8724 7.14545 17.6929 7.2352 17.5 7.24995Z" />
    <path d="M5.44001 19.31C5.34147 19.3104 5.24383 19.2912 5.15282 19.2534C5.06181 19.2157 4.97926 19.1601 4.91001 19.09C4.76956 18.9494 4.69067 18.7587 4.69067 18.56C4.69067 18.3612 4.76956 18.1706 4.91001 18.03L6.00001 17C6.13997 16.9331 6.2972 16.9113 6.45006 16.9376C6.60293 16.9638 6.7439 17.0368 6.85357 17.1464C6.96324 17.2561 7.03621 17.3971 7.06244 17.5499C7.08866 17.7028 7.06685 17.86 7.00001 18L6.00001 19.09C5.92728 19.1638 5.83985 19.2216 5.74338 19.2595C5.64691 19.2974 5.54356 19.3146 5.44001 19.31Z"/></symbol>
  </defs>
</svg>
